<svg width="16" height="16" viewBox="0 0 16 16" fill="none" xmlns="http://www.w3.org/2000/svg">
<g clip-path="url(#clip0_7232_1327)">
<path d="M13.0452 6.08091C14.2837 6.63946 15.3514 7.478 15.9274 8.66564C15.9873 8.7893 16.011 8.92742 15.9957 9.064C15.9804 9.20058 15.9267 9.33003 15.8409 9.43734C15.755 9.54466 15.6405 9.62546 15.5106 9.67037C15.3807 9.71528 15.2408 9.72246 15.107 9.6911C10.7746 8.67582 6.39208 10.4213 4.08153 11.374C2.63135 11.9718 1.22335 11.4838 0.495351 10.5005C0.116753 9.99942 -0.0543567 9.37176 0.0175326 8.74782C0.264805 6.70782 2.82917 5.8351 4.52081 5.4511C7.27062 4.82782 10.4466 4.9071 13.0452 6.08019V6.08091Z" fill="white"/>
</g>
<defs>
<clipPath id="clip0_7232_1327">
<rect width="16" height="16" fill="white"/>
</clipPath>
</defs>
</svg>
