<svg width="16" height="16" viewBox="0 0 16 16" fill="none" xmlns="http://www.w3.org/2000/svg">
<g clip-path="url(#clip0_7232_1323)">
<path d="M14.4 4.80039C13.96 4.80039 13.6 4.44039 13.6 4.00039C13.6 3.56039 13.96 3.20039 14.4 3.20039V2.40039H1.6V3.20039C2.04 3.20039 2.4 3.56039 2.4 4.00039C2.4 4.44039 2.04 4.80039 1.6 4.80039H0V10.4004H1.6C2.04 10.4004 2.4 10.7604 2.4 11.2004C2.4 11.6404 2.04 12.0004 1.6 12.0004V12.8004H14.4V12.0004C13.96 12.0004 13.6 11.6404 13.6 11.2004C13.6 10.7604 13.96 10.4004 14.4 10.4004H16V4.80039H14.4ZM14.4 8.00039H13.6V8.80039H12V8.00039H9.128C8.96 8.46439 8.52 8.80039 8 8.80039C7.48 8.80039 7.04 8.46439 6.872 8.00039H4V8.80039H2.4V8.00039H1.6V7.20039H2.4V6.40039H4V7.20039H6.872C7.04 6.73639 7.48 6.40039 8 6.40039C8.52 6.40039 8.96 6.73639 9.128 7.20039H12V6.40039H13.6V7.20039H14.4V8.00039Z" fill="white"/>
</g>
<defs>
<clipPath id="clip0_7232_1323">
<rect width="16" height="16" fill="white"/>
</clipPath>
</defs>
</svg>
