<svg width="16" height="16" viewBox="0 0 16 16" fill="none" xmlns="http://www.w3.org/2000/svg">
<g clip-path="url(#clip0_7232_1313)">
<path fill-rule="evenodd" clip-rule="evenodd" d="M0.418765 2.43528C0.0340956 3.09963 -0.0913672 3.88274 0.0665055 4.634C0.224378 5.38527 0.654438 6.05164 1.27398 6.50496C1.89351 6.95829 2.65878 7.16654 3.4226 7.08968C4.18642 7.01282 4.89485 6.65628 5.41165 6.08861L6.19654 6.54195C6.21876 6.62372 6.32721 6.64506 6.38321 6.58017C6.51713 6.42313 6.66528 6.27972 6.82765 6.14995C7.08188 5.9455 7.09432 5.51972 6.81165 5.35706L6.07832 4.93306C6.30766 4.20277 6.2598 3.41358 5.9439 2.71636C5.628 2.01913 5.06622 1.46279 4.36596 1.15369C3.66569 0.84459 2.87608 0.804414 2.14806 1.04084C1.42004 1.27727 0.804689 1.77372 0.419654 2.43528M2.2241 5.53039C2.02028 5.41451 1.8414 5.25946 1.69776 5.07417C1.55411 4.88887 1.44853 4.677 1.3871 4.45073C1.32567 4.22447 1.30961 3.98829 1.33983 3.75579C1.37005 3.5233 1.44596 3.29907 1.56319 3.09603C1.68041 2.89299 1.83665 2.71514 2.02289 2.57273C2.20913 2.43031 2.42171 2.32614 2.64837 2.26621C2.87504 2.20629 3.11132 2.19179 3.34361 2.22355C3.5759 2.25531 3.79962 2.33271 4.00188 2.45128C4.40687 2.6887 4.70151 3.07668 4.8215 3.53054C4.94149 3.98439 4.8771 4.46729 4.64236 4.87385C4.40763 5.2804 4.02162 5.57761 3.56857 5.70061C3.11552 5.82361 2.6322 5.76242 2.2241 5.53039ZM7.96276 6.49928C7.61968 6.64391 7.31416 6.86499 7.06953 7.14567C6.8249 7.42635 6.64761 7.75921 6.55121 8.11883L6.19743 9.43972L5.41165 9.89306C4.8939 9.32864 4.18619 8.97497 3.42397 8.89976C2.66176 8.82454 1.89857 9.03306 1.28049 9.48539C0.662403 9.93773 0.23284 10.6021 0.0740121 11.3514C-0.0848154 12.1007 0.0382499 12.8822 0.419654 13.5464C0.803045 14.211 1.4185 14.7105 2.14779 14.9489C2.87707 15.1873 3.66873 15.1478 4.37067 14.8381C5.07262 14.5283 5.63532 13.97 5.95069 13.2705C6.26605 12.5711 6.31182 11.7798 6.07921 11.0486L15.5725 5.56772C15.6864 5.50162 15.7782 5.40325 15.8363 5.28505C15.8943 5.16684 15.9161 5.03409 15.8988 4.90354C15.8815 4.77298 15.8259 4.65048 15.739 4.55148C15.6522 4.45249 15.538 4.38143 15.4108 4.34728L14.7859 4.17928C14.261 4.03886 13.7043 4.07733 13.2037 4.28861L7.96276 6.49928ZM1.57343 12.8797C1.45486 12.6775 1.37746 12.4537 1.3457 12.2215C1.31394 11.9892 1.32844 11.7529 1.38837 11.5262C1.44829 11.2996 1.55246 11.087 1.69488 10.9007C1.83729 10.7145 2.01514 10.5583 2.21818 10.441C2.42122 10.3238 2.64545 10.2479 2.87794 10.2177C3.11044 10.1875 3.34662 10.2035 3.57288 10.265C3.79915 10.3264 4.01102 10.432 4.19632 10.5756C4.38161 10.7193 4.53666 10.8981 4.65254 11.1019C4.88457 11.51 4.94576 11.9934 4.82276 12.4464C4.69976 12.8995 4.40255 13.2855 3.996 13.5202C3.58944 13.7549 3.10655 13.8193 2.65269 13.6993C2.19883 13.5794 1.81085 13.2847 1.57343 12.8797Z" fill="white"/>
<path d="M10.2419 9.67101C10.1702 9.71236 10.1115 9.77292 10.0724 9.84584C10.0332 9.91877 10.0152 10.0012 10.0204 10.0838C10.0256 10.1664 10.0537 10.2459 10.1016 10.3134C10.1496 10.3808 10.2154 10.4336 10.2917 10.4657L13.2019 11.6932C13.7025 11.9045 14.2592 11.943 14.7841 11.8026L15.4099 11.6346C15.537 11.6002 15.651 11.529 15.7377 11.4299C15.8243 11.3308 15.8797 11.2082 15.8968 11.0777C15.9139 10.9472 15.892 10.8145 15.8338 10.6964C15.7757 10.5783 15.6838 10.4801 15.5699 10.4141L12.4854 8.63279C12.4179 8.59378 12.3412 8.57324 12.2632 8.57324C12.1852 8.57324 12.1086 8.59378 12.041 8.63279L10.2419 9.67101Z" fill="white"/>
</g>
<defs>
<clipPath id="clip0_7232_1313">
<rect width="16" height="16" fill="white"/>
</clipPath>
</defs>
</svg>
